<svg width="1600" height="1600" viewBox="0 0 1600 1600" fill="none" xmlns="http://www.w3.org/2000/svg">
  <g stroke="#FFFFFF" opacity="0.08">
    <path d="M0 100H1600M0 200H1600M0 300H1600M0 400H1600M0 500H1600M0 600H1600M0 700H1600M0 800H1600M0 900H1600M0 1000H1600M0 1100H1600M0 1200H1600M0 1300H1600M0 1400H1600M0 1500H1600"/>
    <path d="M100 0V1600M200 0V1600M300 0V1600M400 0V1600M500 0V1600M600 0V1600M700 0V1600M800 0V1600M900 0V1600M1000 0V1600M1100 0V1600M1200 0V1600M1300 0V1600M1400 0V1600M1500 0V1600"/>
  </g>
</svg>
